<svg width="66" height="39" viewBox="0 0 66 39" fill="none" xmlns="http://www.w3.org/2000/svg">
<path d="M25.8851 27.2108C29.0652 28.5493 32.3308 29.6645 35.6588 30.5487C36.8718 30.8503 38.0679 31.2677 39.2754 31.5128C43.5543 32.389 47.8863 32.9637 52.2406 33.2327L55.1449 33.3815C56.0813 33.4246 57.0779 33.4144 58.0384 33.4172C59.2677 33.4037 60.5035 33.361 61.7515 33.2507C62.9935 33.1666 64.2226 32.9466 65.4175 32.5945C66.1754 32.3317 65.9983 32.2346 65.3334 32.2034L63.9815 32.1052C63.4173 32.0548 62.7929 32.0578 62.1141 32.0755C60.8902 32.1455 59.6519 32.0648 58.3829 32.0537L56.5092 31.958C55.8923 31.9412 55.2754 31.9244 54.6364 31.8718C52.1707 31.7284 49.6951 31.4815 47.2243 31.1866C44.2202 30.7617 41.2487 30.1198 38.3324 29.2656C36.7283 28.7734 35.0879 28.3893 33.5283 27.7788C31.9687 27.1683 30.3238 26.737 28.7921 26.0288L25.8798 24.826C24.9117 24.4533 24.0207 23.9117 23.0916 23.4592C20.2753 22.0607 17.5557 20.4676 14.9518 18.691C13.9485 17.9511 13.0366 17.1929 12.1146 16.4261L10.7187 15.2867C10.253 14.9038 9.8338 14.4214 9.3977 14.0546C8.9616 13.6879 8.6465 13.319 8.24917 12.9675C6.7797 11.6451 6.23075 11.3652 5.42961 11.5657C5.25723 11.6022 5.08744 11.6503 4.92135 11.7096C4.43228 11.9561 4.77503 12.807 5.79425 13.9065C7.30809 15.6152 8.9718 17.1795 10.7646 18.58C11.6802 19.2808 12.6144 19.9799 13.5485 20.6789C14.4827 21.378 15.5326 21.9234 16.525 22.5503L18.8081 23.8991C19.559 24.3402 20.3673 24.6997 21.1414 25.091C22.7098 25.8907 24.232 26.6948 25.8664 27.3077L25.8851 27.2108Z" fill="white"/>
<path d="M2.10767 9.12156L2.09535 8.99327L2.08831 8.91997C2.08391 8.87415 2.07863 8.81918 2.07247 8.75503C2.06631 8.69089 2.14419 8.74815 2.18901 8.74384C2.28125 8.75914 2.37166 8.78456 2.45864 8.81967C2.91267 9.02575 3.40519 9.25588 3.83865 9.43619C5.49254 10.0462 7.22127 10.4157 8.97395 10.5336C9.75717 10.5879 10.5413 10.6513 11.312 10.6697C12.3059 10.7438 13.3044 10.6697 14.2763 10.4498C14.581 10.4205 14.5045 10.095 14.2147 9.80837C13.8634 9.4518 13.3999 9.23406 12.9072 9.19413C10.9814 9.1109 9.11208 8.9575 7.20078 8.74341C6.04125 8.5448 4.91201 8.18991 3.84265 7.68802L3.14412 7.38521L2.1125 6.91093C1.73458 6.74378 1.37459 6.5749 1.01724 6.43352C0.567331 6.22679 0.100763 6.62103 0.182906 7.1093L0.275666 7.66068L0.568188 9.48209L0.789107 10.7463C1.02751 12.04 1.36753 13.3124 1.80586 14.5511C2.11261 15.5312 2.50663 16.4808 2.98296 17.388C3.08293 17.5908 3.19544 17.787 3.3198 17.9753C3.80342 18.6779 4.10258 18.7786 4.53934 18.6164C4.63794 18.607 4.74023 18.5417 4.83443 18.4864C5.13321 18.3005 5.13579 17.8563 4.85521 17.3839C4.02374 15.935 3.3651 14.39 2.89345 12.7821C2.72516 12.1602 2.556 11.5291 2.4299 10.8754C2.3991 10.5547 2.30379 10.2217 2.24521 9.89439L2.11488 9.10237L2.10767 9.12156Z" fill="white"/>
</svg>
