<svg width="171" height="205" viewBox="0 0 171 205" fill="none" xmlns="http://www.w3.org/2000/svg">
<path d="M71.9825 188.501C49.6358 198.314 28.6692 195.444 9.08252 179.891C12.5986 186.953 17.9398 192.947 24.5525 197.251C56.0425 217.391 108.703 191.251 142.163 138.961C143.703 136.554 145.179 134.127 146.593 131.681L150.123 125.351C155.47 115.27 159.788 104.677 163.013 93.7306C166.237 82.7845 167.733 69.9006 167.733 69.9006C170.603 42.3606 163.343 19.0106 145.733 7.75059C137.293 2.35059 127.333 0.280586 116.633 1.14059C148.273 2.44059 159.433 38.7506 157.533 65.3506C157.423 66.8706 157.283 68.3506 157.113 69.9006L156.213 76.2306C155.255 81.7534 153.953 87.2107 152.313 92.5706C149.049 103.115 144.724 113.3 139.403 122.971L134.273 131.681C133.943 132.221 133.603 132.751 133.273 133.271C120.523 153.271 102.693 172.271 81.8025 183.801C78.623 185.556 75.3441 187.125 71.9825 188.501Z" fill="#006AB5"/>
<path d="M38.2024 69.9007C50.8624 50.6207 68.2024 32.3707 88.4824 21.2007C101.942 13.7807 120.092 7.91067 135.112 14.0907C136.614 14.7057 138.065 15.438 139.452 16.2807C133.099 9.154 123.206 4.41735 109.772 2.07068C82.0924 7.30068 50.7224 30.6807 28.1224 66.0707C27.3024 67.3507 26.4924 68.6407 25.7124 69.9307C25.0299 71.0564 24.3434 72.1833 23.6882 73.3176L20.1581 79.6475C14.8107 89.728 10.4922 100.321 7.26811 111.268C5.07074 118.728 3.61803 127.082 2.95264 131.651C0.772645 148.111 2.10265 163.191 7.00265 175.321C10.1049 177.428 13.3645 179.293 16.7526 180.901C19.4435 182.169 22.2124 183.264 25.0427 184.181C24.2583 183.405 23.5172 182.587 22.8227 181.731C13.5527 170.471 11.7526 153.571 12.7526 139.651C12.9393 136.984 13.226 134.317 13.6126 131.651L14.0681 128.768C15.0255 123.245 16.3281 117.787 17.9681 112.427C21.2315 101.883 25.557 91.6978 30.8781 82.0275L36.0082 73.3176C36.3382 72.7775 36.6782 72.2476 37.0082 71.7276C37.3957 71.1197 37.8055 70.5065 38.2024 69.9007Z" fill="#324055"/>
</svg>
